<svg xmlns="http://www.w3.org/2000/svg" viewBox="0 0 100 100" width="60" height="60">
  <!-- Outer Green Circle -->
  <circle cx="50" cy="50" r="48" fill="#25D366" />
  
  <!-- White Outline Speech Bubble -->
  <path fill="none" stroke="#FFFFFF" stroke-width="4.5" stroke-linecap="round" stroke-linejoin="round"
        d="M 50,22 C 34.536,22 22,34.536 22,50 C 22,55.45 23.56,60.53 26.25,64.84 L 23.5,74.5 L 33.6,71.9 C 38.3,75.4 44.0,77.5 50,77.5 C 65.464,77.5 78,64.964 78,49.5 C 78,34.036 65.464,22 50,22 Z" />
  
  <!-- Solid White Telephone Handset -->
  <path fill="#FFFFFF" d="M 64.2 59.8 C 63.3 62.3 59.5 64.2 57.2 64.5 C 54.9 64.8 52.0 64.9 42.4 60.8 C 30.1 55.6 22.2 43.1 21.6 42.3 C 21.0 41.5 16.6 35.7 16.6 29.7 C 16.6 23.7 19.7 20.8 20.8 19.6 C 21.9 18.4 23.2 18.1 24.0 18.1 C 24.8 18.1 25.6 18.1 26.3 18.1 C 27.1 18.2 28.1 17.8 29.1 20.3 C 30.2 22.8 32.7 29.0 33.0 29.6 C 33.3 30.2 33.5 31.0 33.1 31.8 C 32.7 32.6 32.3 33.1 31.7 33.8 C 31.1 34.5 30.4 35.4 29.9 36.0 C 29.3 36.6 28.7 37.3 29.4 38.5 C 30.1 39.7 32.6 43.8 36.2 47.0 C 40.9 51.2 44.8 52.5 46.1 53.1 C 47.4 53.7 48.1 53.6 48.8 52.8 C 49.5 52.0 51.8 49.3 52.6 48.1 C 53.4 46.9 54.2 47.1 55.3 47.5 C 56.4 47.9 62.4 50.9 63.6 51.5 C 64.8 52.1 65.6 52.4 65.9 52.9 C 66.2 53.4 66.2 55.9 64.2 59.8 Z"
        transform="translate(4, 2) scale(0.85)" />
</svg>